<svg xmlns="http://www.w3.org/2000/svg" version="1.1" xmlns:xlink="http://www.w3.org/1999/xlink" xmlns:svgjs="http://svgjs.dev/svgjs" width="166.07974" height="192.00031"><svg version="1.1" id="SvgjsSvg1353" x="0px" y="0px" viewBox="0 0 166.07974 192.00031" xml:space="preserve" sodipodi:docname="logo.svg" inkscape:version="1.1.2 (0a00cf5339, 2022-02-04)" width="166.07974" height="192.00031" inkscape:export-filename="/home/vp22681/Git/ggoutbreak/man/figures/logo.png" inkscape:export-xdpi="104.4" inkscape:export-ydpi="104.4" xmlns:inkscape="http://www.inkscape.org/namespaces/inkscape" xmlns:sodipodi="http://sodipodi.sourceforge.net/DTD/sodipodi-0.dtd" xmlns:xlink="http://www.w3.org/1999/xlink" xmlns="http://www.w3.org/2000/svg" xmlns:svg="http://www.w3.org/2000/svg"><defs id="SvgjsDefs1352"><rect x="95.01947" y="628.82526" width="446.85043" height="71.470749" id="SvgjsRect1351"></rect><linearGradient inkscape:collect="always" id="SvgjsLinearGradient1350"><stop style="stop-color:#666666;stop-opacity:1" offset="0" id="SvgjsStop1349"></stop><stop style="stop-color:#e6e6e6;stop-opacity:1" offset="1" id="SvgjsStop1348"></stop></linearGradient>
	
<style id="SvgjsStyle1347">.cls-1{fill:none;}.cls-2{clip-path:url(#clip-path);}.cls-3{fill:#428bca;}.cls-4{opacity:0.25;fill:url(#linear-gradient);}.cls-5{fill:#3674a8;}.cls-6{fill:#e6b35a;}.cls-7,.cls-9{fill:#fff;}.cls-8,.cls-9{opacity:0.9;}</style><clipPath id="SvgjsClipPath1346"><polygon class="cls-1" points="728.2,216.2 728.2,638.3 369.5,846.7 2.8,638.3 2.8,216.2 369.5,9.1 " id="SvgjsPolygon1345"></polygon></clipPath><linearGradient id="SvgjsLinearGradient1344" x1="366.25" y1="-120.69" x2="-419.26004" y2="856.0304" gradientUnits="userSpaceOnUse"><stop offset="0" stop-color="#fff" stop-opacity="0.83" id="SvgjsStop1343"></stop><stop offset="0.56" stop-color="#fff" stop-opacity="0.37" id="SvgjsStop1342"></stop><stop offset="1" stop-color="#fff" stop-opacity="0" id="SvgjsStop1341"></stop></linearGradient>
		
	<linearGradient inkscape:collect="always" xlink:href="#linearGradient12999-0" id="SvgjsLinearGradient1340" x1="-301.50189" y1="729.62213" x2="-137.20238" y2="938.41638" gradientUnits="userSpaceOnUse"></linearGradient><linearGradient inkscape:collect="always" xlink:href="#linearGradient12999-0" id="SvgjsLinearGradient1339" gradientUnits="userSpaceOnUse" x1="-301.50189" y1="729.62213" x2="-137.20238" y2="938.41638"></linearGradient><linearGradient inkscape:collect="always" xlink:href="#linearGradient12999-0" id="SvgjsLinearGradient1338" gradientUnits="userSpaceOnUse" x1="-301.50189" y1="729.62213" x2="-137.20238" y2="938.41638"></linearGradient><linearGradient inkscape:collect="always" xlink:href="#linearGradient12999-0" id="SvgjsLinearGradient1337" gradientUnits="userSpaceOnUse" x1="-301.50189" y1="729.62213" x2="-137.20238" y2="938.41638"></linearGradient></defs><sodipodi:namedview id="SvgjsSodipodi:namedview1336" pagecolor="#ffffff" bordercolor="#666666" borderopacity="1.0" inkscape:pageshadow="2" inkscape:pageopacity="0.0" inkscape:pagecheckerboard="0" showgrid="false" inkscape:zoom="4.0603397" inkscape:cx="124.62011" inkscape:cy="79.426851" inkscape:window-width="2516" inkscape:window-height="1414" inkscape:window-x="44" inkscape:window-y="0" inkscape:window-maximized="1" inkscape:current-layer="g3029-5"></sodipodi:namedview>





<g id="SvgjsG1335" transform="translate(-236.69992,-323.74153)">
</g>
<g id="SvgjsG1334" transform="translate(-236.69992,-323.74153)">
</g>
<g id="SvgjsG1333" transform="translate(-236.69992,-323.74153)">
</g>
<g id="SvgjsG1332" transform="translate(-236.69992,-323.74153)">
</g>
<g id="SvgjsG1331" transform="translate(-236.69992,-323.74153)">
</g>
<g id="SvgjsG1330" transform="translate(-236.69992,-323.74153)">
</g>
<g id="SvgjsG1329" transform="translate(-236.69992,-323.74153)">
</g>
<g id="SvgjsG1328" transform="translate(-236.69992,-323.74153)">
</g>
<g id="SvgjsG1327" transform="translate(-236.69992,-323.74153)">
</g>
<g id="SvgjsG1326" transform="translate(-236.69992,-323.74153)">
</g>
<g id="SvgjsG1325" transform="translate(-236.69992,-323.74153)">
</g>
<g id="SvgjsG1324" transform="translate(-236.69992,-323.74153)">
</g>
<g id="SvgjsG1323" transform="translate(-236.69992,-323.74153)">
</g>
<g id="SvgjsG1322" transform="translate(-236.69992,-323.74153)">
</g>
<g id="SvgjsG1321" transform="translate(-236.69992,-323.74153)">
</g>
<g id="SvgjsG1320" transform="matrix(0.22540681,0,0,0.22566797,10.968343,1.2778974)" inkscape:export-filename="/home/vp22681/Dropbox/Git/interfacer/man/figures/g30854.png" inkscape:export-xdpi="104.4" inkscape:export-ydpi="104.4"><g id="SvgjsG1319" transform="translate(-47.76021,-7.20815)" style="fill:#d7e3f4;fill-opacity:1;stroke:#000000;stroke-width:2;stroke-miterlimit:4;stroke-dasharray:none;stroke-opacity:1"><path class="cls-5" d="M 705.6,197.9 427.8,37.5 367.5,2.7 307.2,37.5 29.4,197.9 0.1,214.8 V 639.1 L 29.4,656 310.6,818.4 367.5,851.2 424.4,818.4 705.6,656 734.9,639.1 V 214.8 Z" id="SvgjsPath1318" style="fill:#b28c99;fill-opacity:1;stroke:#000000;stroke-width:2;stroke-miterlimit:4;stroke-dasharray:none;stroke-opacity:1" sodipodi:nodetypes="ccccccccccccccc"></path><text xml:space="preserve" style="font-size:94.5888px;line-height:1.25;font-family:Roboto;-inkscape-font-specification:'Roboto, Normal';fill:#b28c99;fill-opacity:1;stroke-width:8.86771" x="58.713608" y="634.59119" id="SvgjsText1317" transform="scale(1.0005791,0.99942123)" svgjs:data="{&quot;leading&quot;:&quot;1.3&quot;}"><tspan sodipodi:role="line" id="SvgjsTspan1316" style="fill:#b28c99;fill-opacity:1;stroke-width:8.86771" x="58.713608" y="634.59119">GGOUTBREAK</tspan></text></g><g class="cls-8" id="SvgjsG1315" transform="translate(658.41632,227.52637)" style="fill:#d7e3f4;fill-opacity:1;stroke:#000000;stroke-width:2;stroke-miterlimit:4;stroke-dasharray:none;stroke-opacity:1"></g><g id="SvgjsG1314" transform="translate(658.98571,203.11855)" style="fill:url(#linearGradient12835);fill-opacity:1;stroke:#000000;stroke-width:2;stroke-miterlimit:4;stroke-dasharray:none;stroke-opacity:1"><g id="SvgjsG1313" transform="translate(-706.74592,-210.3267)" style="fill:url(#linearGradient14679);fill-opacity:1;stroke:#000000;stroke-width:2;stroke-miterlimit:4;stroke-dasharray:none;stroke-opacity:1"><path class="cls-5" d="M 705.6,197.9 427.8,37.5 367.5,2.7 307.2,37.5 29.4,197.9 0.1,214.8 V 639.1 L 29.4,656 310.6,818.4 367.5,851.2 424.4,818.4 705.6,656 734.9,639.1 V 214.8 Z m 0,425.3 L 367.5,818.4 29.4,623.2 V 232.7 L 367.5,37.5 v 0 l 338.1,195.2 z" id="SvgjsPath1312" style="fill:url(#linearGradient14677);fill-opacity:1;stroke:#000000;stroke-width:2;stroke-miterlimit:4;stroke-dasharray:none;stroke-opacity:1"></path></g><g class="cls-8" id="SvgjsG1311" transform="translate(-0.56938775,24.407823)" style="fill:url(#linearGradient14681);fill-opacity:1;stroke:#000000;stroke-width:2;stroke-miterlimit:4;stroke-dasharray:none;stroke-opacity:1"></g></g><g id="SvgjsG1310" transform="matrix(2.1623874,0,0,2.4069892,-16.915883,182.34808)">
	<g id="SvgjsG1309">
		
		
		
		
		
		
		
		
	</g>
	<g id="SvgjsG1308"><path fill="#ffffff" d="m 26,27.3 -2.5,8.7 -9.7,1.4 c 0,0 0,3.1 0.2,3.7 0.2,0.6 2.8,4.3 2.8,4.3 l 4.4,2.8 1.6,1.7 -1.3,2.2 c 0,0 -3.1,2.3 -2.9,2.6 0.2,0.2 0.9,1.9 0.9,1.9 l 4.1,0.4 c 0,0 3.3,-1.1 3.3,-1.2 0,-0.1 3,-4.8 3,-4.8 0,0 3.9,-1.1 5.3,1.7 L 39.4,49 41.6,37.3 c 0,0 -1.8,-3.6 -1.9,-3.8 -0.1,-0.2 -5.3,-5.1 -5.3,-5.1 l -5.9,1.9 z" id="SvgjsPath1307"></path><path fill="#ffffff" d="M 19.3,22.7 13,26.4 9.1,32.5 c 0,0 0.8,4.1 0.9,4.1 0.1,0 7.9,1.6 7.9,1.6 l 6.5,-2.6 z" id="SvgjsPath1306"></path><g id="SvgjsG1305" style="fill:#9a3f3f;fill-opacity:1">
			<path fill="#3f3f3f" d="m 27.6,22 1.9,-5.4 -0.8,-5.3 -3.4,1.5 -1.9,1.3 c 0,0 -1.2,-2.8 -3,-2.8 l -3.3,3.8 -0.8,4.7 -0.9,0.9 c 0,0 0.3,3 0.9,3.2 0.2,0.1 0.7,0 1.1,-0.1 L 14,25.7 c 0,0 -2.4,8.4 5.2,12.3 2.4,0.1 3.2,0.7 5.5,-1.5 0,0 3.4,-4.4 0.6,-10.5 v 0 c 0,-0.2 -0.1,-0.4 -0.1,-0.4 z" id="SvgjsPath1304" style="fill:#9a3f3f;fill-opacity:1"></path>
		</g><path fill="#3f3f3f" d="m 31.8,29 c 0,0 13.4,9 4.2,21.6 l -1,2.9 1.7,1.9 6.2,1.8 7.5,-0.6 5.1,-3.7 0.4,-3.9 -1,-5.9 -3.3,-5.6 -4.6,-5.3 -4.7,-2.9 z" id="SvgjsPath1303" style="fill:#9a3f3f;fill-opacity:1"></path><path fill="#ffffff" d="m 55.6,47.5 3.2,-0.5 3.7,1.8 c 0,0 0.1,3.3 0.2,3.4 0.1,0.1 -3.1,3.2 -3.1,3.2 -0.1,0.1 -2.4,1 -2.4,1 0,0 -3.3,0.3 -4.8,-1 l 2.9,-2.6 z" id="SvgjsPath1302"></path><path fill="none" stroke="#000000" stroke-width="2" stroke-linecap="round" stroke-linejoin="round" stroke-miterlimit="10" d="m 23.9,35.5 c -2.4,5.1 -13.2,1 -13.2,1 C 10.1,36.2 9.7,35.7 9.6,35 L 9.2,33 c -0.1,-0.5 0,-1 0.3,-1.4 l 1.9,-3.2 c 0.9,-1.5 2.3,-2.8 3.9,-3.6 L 19,23 c 0,0 3.5,-10.9 9.3,-11.8 0,0 4.6,4.7 -3.5,15 0,0 2,1.4 3.6,4 0,0 15.3,-8.9 24.9,10.4 C 62.2,58.4 45,57.3 39.1,56.5 37.6,56.3 36.3,55.4 35.6,54 35,52.7 35.1,51 39,50.5" id="SvgjsPath1301"></path><path fill="none" stroke="#000000" stroke-width="2" stroke-linecap="round" stroke-linejoin="round" stroke-miterlimit="10" d="m 15,41.2 c 0.3,2.9 2.1,6.2 6.7,6.8 0,0 1.5,1.8 0,3.3 0,0 -1.4,1.2 -2.4,2.3 -1.3,1.2 -0.5,3.4 1.3,3.4 h 3.9 c 0.7,0 1.3,-0.4 1.7,-0.9 l 3.7,-5.9 1.3,-4" id="SvgjsPath1300"></path><path fill="none" stroke="#000000" stroke-width="2" stroke-linecap="round" stroke-linejoin="round" stroke-miterlimit="10" d="m 59,48 c 0,0 4.9,-0.1 3.4,3.9 -1.5,4 -5,3.6 -5,3.6" id="SvgjsPath1299"></path><path fill="none" stroke="#000000" stroke-width="2" stroke-linecap="round" stroke-linejoin="round" stroke-miterlimit="10" d="m 16.3,20.2 c -0.2,-3.1 0.8,-7.2 4,-8.9 0,0 1.9,-0.2 3.2,3.2" id="SvgjsPath1298"></path></g><g id="SvgjsG1297" transform="translate(3.9371827,55.844964)"><path fill="#ffffff" d="m 26,27.3 -2.5,8.7 -9.7,1.4 c 0,0 0,3.1 0.2,3.7 0.2,0.6 2.8,4.3 2.8,4.3 l 4.4,2.8 1.6,1.7 -1.3,2.2 c 0,0 -3.1,2.3 -2.9,2.6 0.2,0.2 0.9,1.9 0.9,1.9 l 4.1,0.4 c 0,0 3.3,-1.1 3.3,-1.2 0,-0.1 3,-4.8 3,-4.8 0,0 3.9,-1.1 5.3,1.7 L 39.4,49 41.6,37.3 c 0,0 -1.8,-3.6 -1.9,-3.8 -0.1,-0.2 -5.3,-5.1 -5.3,-5.1 l -5.9,1.9 z" id="SvgjsPath1296"></path><path fill="#ffffff" d="M 19.3,22.7 13,26.4 9.1,32.5 c 0,0 0.8,4.1 0.9,4.1 0.1,0 7.9,1.6 7.9,1.6 l 6.5,-2.6 z" id="SvgjsPath1295"></path><g id="SvgjsG1294"><path fill="#3f3f3f" d="m 27.6,22 1.9,-5.4 -0.8,-5.3 -3.4,1.5 -1.9,1.3 c 0,0 -1.2,-2.8 -3,-2.8 l -3.3,3.8 -0.8,4.7 -0.9,0.9 c 0,0 0.3,3 0.9,3.2 0.2,0.1 0.7,0 1.1,-0.1 L 14,25.7 c 0,0 -2.4,8.4 5.2,12.3 2.4,0.1 3.2,0.7 5.5,-1.5 0,0 3.4,-4.4 0.6,-10.5 v 0 c 0,-0.2 -0.1,-0.4 -0.1,-0.4 z" id="SvgjsPath1293" style="fill:#9a853f;fill-opacity:1"></path></g><path fill="#3f3f3f" d="m 31.8,29 c 0,0 13.4,9 4.2,21.6 l -1,2.9 1.7,1.9 6.2,1.8 7.5,-0.6 5.1,-3.7 0.4,-3.9 -1,-5.9 -3.3,-5.6 -4.6,-5.3 -4.7,-2.9 z" id="SvgjsPath1292" style="fill:#9a853f;fill-opacity:1"></path><path fill="#ffffff" d="m 55.6,47.5 3.2,-0.5 3.7,1.8 c 0,0 0.1,3.3 0.2,3.4 0.1,0.1 -3.1,3.2 -3.1,3.2 -0.1,0.1 -2.4,1 -2.4,1 0,0 -3.3,0.3 -4.8,-1 l 2.9,-2.6 z" id="SvgjsPath1291"></path><path fill="none" stroke="#000000" stroke-width="2" stroke-linecap="round" stroke-linejoin="round" stroke-miterlimit="10" d="m 23.9,35.5 c -2.4,5.1 -13.2,1 -13.2,1 C 10.1,36.2 9.7,35.7 9.6,35 L 9.2,33 c -0.1,-0.5 0,-1 0.3,-1.4 l 1.9,-3.2 c 0.9,-1.5 2.3,-2.8 3.9,-3.6 L 19,23 c 0,0 3.5,-10.9 9.3,-11.8 0,0 4.6,4.7 -3.5,15 0,0 2,1.4 3.6,4 0,0 15.3,-8.9 24.9,10.4 C 62.2,58.4 45,57.3 39.1,56.5 37.6,56.3 36.3,55.4 35.6,54 35,52.7 35.1,51 39,50.5" id="SvgjsPath1290"></path><path fill="none" stroke="#000000" stroke-width="2" stroke-linecap="round" stroke-linejoin="round" stroke-miterlimit="10" d="m 15,41.2 c 0.3,2.9 2.1,6.2 6.7,6.8 0,0 1.5,1.8 0,3.3 0,0 -1.4,1.2 -2.4,2.3 -1.3,1.2 -0.5,3.4 1.3,3.4 h 3.9 c 0.7,0 1.3,-0.4 1.7,-0.9 l 3.7,-5.9 1.3,-4" id="SvgjsPath1289"></path><path fill="none" stroke="#000000" stroke-width="2" stroke-linecap="round" stroke-linejoin="round" stroke-miterlimit="10" d="m 59,48 c 0,0 4.9,-0.1 3.4,3.9 -1.5,4 -5,3.6 -5,3.6" id="SvgjsPath1288"></path><path fill="none" stroke="#000000" stroke-width="2" stroke-linecap="round" stroke-linejoin="round" stroke-miterlimit="10" d="m 16.3,20.2 c -0.2,-3.1 0.8,-7.2 4,-8.9 0,0 1.9,-0.2 3.2,3.2" id="SvgjsPath1287"></path></g><g id="SvgjsG1286" transform="translate(110.9242,-55.628167)"><path fill="#ffffff" d="m 26,27.3 -2.5,8.7 -9.7,1.4 c 0,0 0,3.1 0.2,3.7 0.2,0.6 2.8,4.3 2.8,4.3 l 4.4,2.8 1.6,1.7 -1.3,2.2 c 0,0 -3.1,2.3 -2.9,2.6 0.2,0.2 0.9,1.9 0.9,1.9 l 4.1,0.4 c 0,0 3.3,-1.1 3.3,-1.2 0,-0.1 3,-4.8 3,-4.8 0,0 3.9,-1.1 5.3,1.7 L 39.4,49 41.6,37.3 c 0,0 -1.8,-3.6 -1.9,-3.8 -0.1,-0.2 -5.3,-5.1 -5.3,-5.1 l -5.9,1.9 z" id="SvgjsPath1285"></path><path fill="#ffffff" d="M 19.3,22.7 13,26.4 9.1,32.5 c 0,0 0.8,4.1 0.9,4.1 0.1,0 7.9,1.6 7.9,1.6 l 6.5,-2.6 z" id="SvgjsPath1284"></path><g id="SvgjsG1283"><path fill="#3f3f3f" d="m 27.6,22 1.9,-5.4 -0.8,-5.3 -3.4,1.5 -1.9,1.3 c 0,0 -1.2,-2.8 -3,-2.8 l -3.3,3.8 -0.8,4.7 -0.9,0.9 c 0,0 0.3,3 0.9,3.2 0.2,0.1 0.7,0 1.1,-0.1 L 14,25.7 c 0,0 -2.4,8.4 5.2,12.3 2.4,0.1 3.2,0.7 5.5,-1.5 0,0 3.4,-4.4 0.6,-10.5 v 0 c 0,-0.2 -0.1,-0.4 -0.1,-0.4 z" id="SvgjsPath1282"></path></g><path fill="#3f3f3f" d="m 31.8,29 c 0,0 13.4,9 4.2,21.6 l -1,2.9 1.7,1.9 6.2,1.8 7.5,-0.6 5.1,-3.7 0.4,-3.9 -1,-5.9 -3.3,-5.6 -4.6,-5.3 -4.7,-2.9 z" id="SvgjsPath1281"></path><path fill="#ffffff" d="m 55.6,47.5 3.2,-0.5 3.7,1.8 c 0,0 0.1,3.3 0.2,3.4 0.1,0.1 -3.1,3.2 -3.1,3.2 -0.1,0.1 -2.4,1 -2.4,1 0,0 -3.3,0.3 -4.8,-1 l 2.9,-2.6 z" id="SvgjsPath1280"></path><path fill="none" stroke="#000000" stroke-width="2" stroke-linecap="round" stroke-linejoin="round" stroke-miterlimit="10" d="m 23.9,35.5 c -2.4,5.1 -13.2,1 -13.2,1 C 10.1,36.2 9.7,35.7 9.6,35 L 9.2,33 c -0.1,-0.5 0,-1 0.3,-1.4 l 1.9,-3.2 c 0.9,-1.5 2.3,-2.8 3.9,-3.6 L 19,23 c 0,0 3.5,-10.9 9.3,-11.8 0,0 4.6,4.7 -3.5,15 0,0 2,1.4 3.6,4 0,0 15.3,-8.9 24.9,10.4 C 62.2,58.4 45,57.3 39.1,56.5 37.6,56.3 36.3,55.4 35.6,54 35,52.7 35.1,51 39,50.5" id="SvgjsPath1279"></path><path fill="none" stroke="#000000" stroke-width="2" stroke-linecap="round" stroke-linejoin="round" stroke-miterlimit="10" d="m 15,41.2 c 0.3,2.9 2.1,6.2 6.7,6.8 0,0 1.5,1.8 0,3.3 0,0 -1.4,1.2 -2.4,2.3 -1.3,1.2 -0.5,3.4 1.3,3.4 h 3.9 c 0.7,0 1.3,-0.4 1.7,-0.9 l 3.7,-5.9 1.3,-4" id="SvgjsPath1278"></path><path fill="none" stroke="#000000" stroke-width="2" stroke-linecap="round" stroke-linejoin="round" stroke-miterlimit="10" d="m 59,48 c 0,0 4.9,-0.1 3.4,3.9 -1.5,4 -5,3.6 -5,3.6" id="SvgjsPath1277"></path><path fill="none" stroke="#000000" stroke-width="2" stroke-linecap="round" stroke-linejoin="round" stroke-miterlimit="10" d="m 16.3,20.2 c -0.2,-3.1 0.8,-7.2 4,-8.9 0,0 1.9,-0.2 3.2,3.2" id="SvgjsPath1276"></path></g><g id="SvgjsG1275" transform="translate(56.272875,-30.741811)"><path fill="#ffffff" d="m 26,27.3 -2.5,8.7 -9.7,1.4 c 0,0 0,3.1 0.2,3.7 0.2,0.6 2.8,4.3 2.8,4.3 l 4.4,2.8 1.6,1.7 -1.3,2.2 c 0,0 -3.1,2.3 -2.9,2.6 0.2,0.2 0.9,1.9 0.9,1.9 l 4.1,0.4 c 0,0 3.3,-1.1 3.3,-1.2 0,-0.1 3,-4.8 3,-4.8 0,0 3.9,-1.1 5.3,1.7 L 39.4,49 41.6,37.3 c 0,0 -1.8,-3.6 -1.9,-3.8 -0.1,-0.2 -5.3,-5.1 -5.3,-5.1 l -5.9,1.9 z" id="SvgjsPath1274"></path><path fill="#ffffff" d="M 19.3,22.7 13,26.4 9.1,32.5 c 0,0 0.8,4.1 0.9,4.1 0.1,0 7.9,1.6 7.9,1.6 l 6.5,-2.6 z" id="SvgjsPath1273"></path><g id="SvgjsG1272" style="fill:#9a853f;fill-opacity:1"><path fill="#3f3f3f" d="m 27.6,22 1.9,-5.4 -0.8,-5.3 -3.4,1.5 -1.9,1.3 c 0,0 -1.2,-2.8 -3,-2.8 l -3.3,3.8 -0.8,4.7 -0.9,0.9 c 0,0 0.3,3 0.9,3.2 0.2,0.1 0.7,0 1.1,-0.1 L 14,25.7 c 0,0 -2.4,8.4 5.2,12.3 2.4,0.1 3.2,0.7 5.5,-1.5 0,0 3.4,-4.4 0.6,-10.5 v 0 c 0,-0.2 -0.1,-0.4 -0.1,-0.4 z" id="SvgjsPath1271" style="fill:#9a853f;fill-opacity:1"></path></g><path fill="#3f3f3f" d="m 31.8,29 c 0,0 13.4,9 4.2,21.6 l -1,2.9 1.7,1.9 6.2,1.8 7.5,-0.6 5.1,-3.7 0.4,-3.9 -1,-5.9 -3.3,-5.6 -4.6,-5.3 -4.7,-2.9 z" id="SvgjsPath1270" style="fill:#9a853f;fill-opacity:1"></path><path fill="#ffffff" d="m 55.6,47.5 3.2,-0.5 3.7,1.8 c 0,0 0.1,3.3 0.2,3.4 0.1,0.1 -3.1,3.2 -3.1,3.2 -0.1,0.1 -2.4,1 -2.4,1 0,0 -3.3,0.3 -4.8,-1 l 2.9,-2.6 z" id="SvgjsPath1269"></path><path fill="none" stroke="#000000" stroke-width="2" stroke-linecap="round" stroke-linejoin="round" stroke-miterlimit="10" d="m 23.9,35.5 c -2.4,5.1 -13.2,1 -13.2,1 C 10.1,36.2 9.7,35.7 9.6,35 L 9.2,33 c -0.1,-0.5 0,-1 0.3,-1.4 l 1.9,-3.2 c 0.9,-1.5 2.3,-2.8 3.9,-3.6 L 19,23 c 0,0 3.5,-10.9 9.3,-11.8 0,0 4.6,4.7 -3.5,15 0,0 2,1.4 3.6,4 0,0 15.3,-8.9 24.9,10.4 C 62.2,58.4 45,57.3 39.1,56.5 37.6,56.3 36.3,55.4 35.6,54 35,52.7 35.1,51 39,50.5" id="SvgjsPath1268"></path><path fill="none" stroke="#000000" stroke-width="2" stroke-linecap="round" stroke-linejoin="round" stroke-miterlimit="10" d="m 15,41.2 c 0.3,2.9 2.1,6.2 6.7,6.8 0,0 1.5,1.8 0,3.3 0,0 -1.4,1.2 -2.4,2.3 -1.3,1.2 -0.5,3.4 1.3,3.4 h 3.9 c 0.7,0 1.3,-0.4 1.7,-0.9 l 3.7,-5.9 1.3,-4" id="SvgjsPath1267"></path><path fill="none" stroke="#000000" stroke-width="2" stroke-linecap="round" stroke-linejoin="round" stroke-miterlimit="10" d="m 59,48 c 0,0 4.9,-0.1 3.4,3.9 -1.5,4 -5,3.6 -5,3.6" id="SvgjsPath1266"></path><path fill="none" stroke="#000000" stroke-width="2" stroke-linecap="round" stroke-linejoin="round" stroke-miterlimit="10" d="m 16.3,20.2 c -0.2,-3.1 0.8,-7.2 4,-8.9 0,0 1.9,-0.2 3.2,3.2" id="SvgjsPath1265"></path></g><g id="SvgjsG1264" transform="translate(58.041683,29.808804)"><path fill="#ffffff" d="m 26,27.3 -2.5,8.7 -9.7,1.4 c 0,0 0,3.1 0.2,3.7 0.2,0.6 2.8,4.3 2.8,4.3 l 4.4,2.8 1.6,1.7 -1.3,2.2 c 0,0 -3.1,2.3 -2.9,2.6 0.2,0.2 0.9,1.9 0.9,1.9 l 4.1,0.4 c 0,0 3.3,-1.1 3.3,-1.2 0,-0.1 3,-4.8 3,-4.8 0,0 3.9,-1.1 5.3,1.7 L 39.4,49 41.6,37.3 c 0,0 -1.8,-3.6 -1.9,-3.8 -0.1,-0.2 -5.3,-5.1 -5.3,-5.1 l -5.9,1.9 z" id="SvgjsPath1263"></path><path fill="#ffffff" d="M 19.3,22.7 13,26.4 9.1,32.5 c 0,0 0.8,4.1 0.9,4.1 0.1,0 7.9,1.6 7.9,1.6 l 6.5,-2.6 z" id="SvgjsPath1262"></path><g id="SvgjsG1261" style="fill:#9a853f;fill-opacity:1"><path fill="#3f3f3f" d="m 27.6,22 1.9,-5.4 -0.8,-5.3 -3.4,1.5 -1.9,1.3 c 0,0 -1.2,-2.8 -3,-2.8 l -3.3,3.8 -0.8,4.7 -0.9,0.9 c 0,0 0.3,3 0.9,3.2 0.2,0.1 0.7,0 1.1,-0.1 L 14,25.7 c 0,0 -2.4,8.4 5.2,12.3 2.4,0.1 3.2,0.7 5.5,-1.5 0,0 3.4,-4.4 0.6,-10.5 v 0 c 0,-0.2 -0.1,-0.4 -0.1,-0.4 z" id="SvgjsPath1260" style="fill:#9a853f;fill-opacity:1"></path></g><path fill="#3f3f3f" d="m 31.8,29 c 0,0 13.4,9 4.2,21.6 l -1,2.9 1.7,1.9 6.2,1.8 7.5,-0.6 5.1,-3.7 0.4,-3.9 -1,-5.9 -3.3,-5.6 -4.6,-5.3 -4.7,-2.9 z" id="SvgjsPath1259" style="fill:#9a853f;fill-opacity:1"></path><path fill="#ffffff" d="m 55.6,47.5 3.2,-0.5 3.7,1.8 c 0,0 0.1,3.3 0.2,3.4 0.1,0.1 -3.1,3.2 -3.1,3.2 -0.1,0.1 -2.4,1 -2.4,1 0,0 -3.3,0.3 -4.8,-1 l 2.9,-2.6 z" id="SvgjsPath1258"></path><path fill="none" stroke="#000000" stroke-width="2" stroke-linecap="round" stroke-linejoin="round" stroke-miterlimit="10" d="m 23.9,35.5 c -2.4,5.1 -13.2,1 -13.2,1 C 10.1,36.2 9.7,35.7 9.6,35 L 9.2,33 c -0.1,-0.5 0,-1 0.3,-1.4 l 1.9,-3.2 c 0.9,-1.5 2.3,-2.8 3.9,-3.6 L 19,23 c 0,0 3.5,-10.9 9.3,-11.8 0,0 4.6,4.7 -3.5,15 0,0 2,1.4 3.6,4 0,0 15.3,-8.9 24.9,10.4 C 62.2,58.4 45,57.3 39.1,56.5 37.6,56.3 36.3,55.4 35.6,54 35,52.7 35.1,51 39,50.5" id="SvgjsPath1257"></path><path fill="none" stroke="#000000" stroke-width="2" stroke-linecap="round" stroke-linejoin="round" stroke-miterlimit="10" d="m 15,41.2 c 0.3,2.9 2.1,6.2 6.7,6.8 0,0 1.5,1.8 0,3.3 0,0 -1.4,1.2 -2.4,2.3 -1.3,1.2 -0.5,3.4 1.3,3.4 h 3.9 c 0.7,0 1.3,-0.4 1.7,-0.9 l 3.7,-5.9 1.3,-4" id="SvgjsPath1256"></path><path fill="none" stroke="#000000" stroke-width="2" stroke-linecap="round" stroke-linejoin="round" stroke-miterlimit="10" d="m 59,48 c 0,0 4.9,-0.1 3.4,3.9 -1.5,4 -5,3.6 -5,3.6" id="SvgjsPath1255"></path><path fill="none" stroke="#000000" stroke-width="2" stroke-linecap="round" stroke-linejoin="round" stroke-miterlimit="10" d="m 16.3,20.2 c -0.2,-3.1 0.8,-7.2 4,-8.9 0,0 1.9,-0.2 3.2,3.2" id="SvgjsPath1254"></path></g><g id="SvgjsG1253" transform="translate(115.67057,4.9380011)"><path fill="#ffffff" d="m 26,27.3 -2.5,8.7 -9.7,1.4 c 0,0 0,3.1 0.2,3.7 0.2,0.6 2.8,4.3 2.8,4.3 l 4.4,2.8 1.6,1.7 -1.3,2.2 c 0,0 -3.1,2.3 -2.9,2.6 0.2,0.2 0.9,1.9 0.9,1.9 l 4.1,0.4 c 0,0 3.3,-1.1 3.3,-1.2 0,-0.1 3,-4.8 3,-4.8 0,0 3.9,-1.1 5.3,1.7 L 39.4,49 41.6,37.3 c 0,0 -1.8,-3.6 -1.9,-3.8 -0.1,-0.2 -5.3,-5.1 -5.3,-5.1 l -5.9,1.9 z" id="SvgjsPath1252"></path><path fill="#ffffff" d="M 19.3,22.7 13,26.4 9.1,32.5 c 0,0 0.8,4.1 0.9,4.1 0.1,0 7.9,1.6 7.9,1.6 l 6.5,-2.6 z" id="SvgjsPath1251"></path><g id="SvgjsG1250"><path fill="#3f3f3f" d="m 27.6,22 1.9,-5.4 -0.8,-5.3 -3.4,1.5 -1.9,1.3 c 0,0 -1.2,-2.8 -3,-2.8 l -3.3,3.8 -0.8,4.7 -0.9,0.9 c 0,0 0.3,3 0.9,3.2 0.2,0.1 0.7,0 1.1,-0.1 L 14,25.7 c 0,0 -2.4,8.4 5.2,12.3 2.4,0.1 3.2,0.7 5.5,-1.5 0,0 3.4,-4.4 0.6,-10.5 v 0 c 0,-0.2 -0.1,-0.4 -0.1,-0.4 z" id="SvgjsPath1249"></path></g><path fill="#3f3f3f" d="m 31.8,29 c 0,0 13.4,9 4.2,21.6 l -1,2.9 1.7,1.9 6.2,1.8 7.5,-0.6 5.1,-3.7 0.4,-3.9 -1,-5.9 -3.3,-5.6 -4.6,-5.3 -4.7,-2.9 z" id="SvgjsPath1248"></path><path fill="#ffffff" d="m 55.6,47.5 3.2,-0.5 3.7,1.8 c 0,0 0.1,3.3 0.2,3.4 0.1,0.1 -3.1,3.2 -3.1,3.2 -0.1,0.1 -2.4,1 -2.4,1 0,0 -3.3,0.3 -4.8,-1 l 2.9,-2.6 z" id="SvgjsPath1247"></path><path fill="none" stroke="#000000" stroke-width="2" stroke-linecap="round" stroke-linejoin="round" stroke-miterlimit="10" d="m 23.9,35.5 c -2.4,5.1 -13.2,1 -13.2,1 C 10.1,36.2 9.7,35.7 9.6,35 L 9.2,33 c -0.1,-0.5 0,-1 0.3,-1.4 l 1.9,-3.2 c 0.9,-1.5 2.3,-2.8 3.9,-3.6 L 19,23 c 0,0 3.5,-10.9 9.3,-11.8 0,0 4.6,4.7 -3.5,15 0,0 2,1.4 3.6,4 0,0 15.3,-8.9 24.9,10.4 C 62.2,58.4 45,57.3 39.1,56.5 37.6,56.3 36.3,55.4 35.6,54 35,52.7 35.1,51 39,50.5" id="SvgjsPath1246"></path><path fill="none" stroke="#000000" stroke-width="2" stroke-linecap="round" stroke-linejoin="round" stroke-miterlimit="10" d="m 15,41.2 c 0.3,2.9 2.1,6.2 6.7,6.8 0,0 1.5,1.8 0,3.3 0,0 -1.4,1.2 -2.4,2.3 -1.3,1.2 -0.5,3.4 1.3,3.4 h 3.9 c 0.7,0 1.3,-0.4 1.7,-0.9 l 3.7,-5.9 1.3,-4" id="SvgjsPath1245"></path><path fill="none" stroke="#000000" stroke-width="2" stroke-linecap="round" stroke-linejoin="round" stroke-miterlimit="10" d="m 59,48 c 0,0 4.9,-0.1 3.4,3.9 -1.5,4 -5,3.6 -5,3.6" id="SvgjsPath1244"></path><path fill="none" stroke="#000000" stroke-width="2" stroke-linecap="round" stroke-linejoin="round" stroke-miterlimit="10" d="m 16.3,20.2 c -0.2,-3.1 0.8,-7.2 4,-8.9 0,0 1.9,-0.2 3.2,3.2" id="SvgjsPath1243"></path></g><g id="SvgjsG1242" transform="translate(171.94345,-25.80381)"><path fill="#ffffff" d="m 26,27.3 -2.5,8.7 -9.7,1.4 c 0,0 0,3.1 0.2,3.7 0.2,0.6 2.8,4.3 2.8,4.3 l 4.4,2.8 1.6,1.7 -1.3,2.2 c 0,0 -3.1,2.3 -2.9,2.6 0.2,0.2 0.9,1.9 0.9,1.9 l 4.1,0.4 c 0,0 3.3,-1.1 3.3,-1.2 0,-0.1 3,-4.8 3,-4.8 0,0 3.9,-1.1 5.3,1.7 L 39.4,49 41.6,37.3 c 0,0 -1.8,-3.6 -1.9,-3.8 -0.1,-0.2 -5.3,-5.1 -5.3,-5.1 l -5.9,1.9 z" id="SvgjsPath1241"></path><path fill="#ffffff" d="M 19.3,22.7 13,26.4 9.1,32.5 c 0,0 0.8,4.1 0.9,4.1 0.1,0 7.9,1.6 7.9,1.6 l 6.5,-2.6 z" id="SvgjsPath1240"></path><g id="SvgjsG1239"><path fill="#3f3f3f" d="m 27.6,22 1.9,-5.4 -0.8,-5.3 -3.4,1.5 -1.9,1.3 c 0,0 -1.2,-2.8 -3,-2.8 l -3.3,3.8 -0.8,4.7 -0.9,0.9 c 0,0 0.3,3 0.9,3.2 0.2,0.1 0.7,0 1.1,-0.1 L 14,25.7 c 0,0 -2.4,8.4 5.2,12.3 2.4,0.1 3.2,0.7 5.5,-1.5 0,0 3.4,-4.4 0.6,-10.5 v 0 c 0,-0.2 -0.1,-0.4 -0.1,-0.4 z" id="SvgjsPath1238"></path></g><path fill="#3f3f3f" d="m 31.8,29 c 0,0 13.4,9 4.2,21.6 l -1,2.9 1.7,1.9 6.2,1.8 7.5,-0.6 5.1,-3.7 0.4,-3.9 -1,-5.9 -3.3,-5.6 -4.6,-5.3 -4.7,-2.9 z" id="SvgjsPath1237"></path><path fill="#ffffff" d="m 55.6,47.5 3.2,-0.5 3.7,1.8 c 0,0 0.1,3.3 0.2,3.4 0.1,0.1 -3.1,3.2 -3.1,3.2 -0.1,0.1 -2.4,1 -2.4,1 0,0 -3.3,0.3 -4.8,-1 l 2.9,-2.6 z" id="SvgjsPath1236"></path><path fill="none" stroke="#000000" stroke-width="2" stroke-linecap="round" stroke-linejoin="round" stroke-miterlimit="10" d="m 23.9,35.5 c -2.4,5.1 -13.2,1 -13.2,1 C 10.1,36.2 9.7,35.7 9.6,35 L 9.2,33 c -0.1,-0.5 0,-1 0.3,-1.4 l 1.9,-3.2 c 0.9,-1.5 2.3,-2.8 3.9,-3.6 L 19,23 c 0,0 3.5,-10.9 9.3,-11.8 0,0 4.6,4.7 -3.5,15 0,0 2,1.4 3.6,4 0,0 15.3,-8.9 24.9,10.4 C 62.2,58.4 45,57.3 39.1,56.5 37.6,56.3 36.3,55.4 35.6,54 35,52.7 35.1,51 39,50.5" id="SvgjsPath1235"></path><path fill="none" stroke="#000000" stroke-width="2" stroke-linecap="round" stroke-linejoin="round" stroke-miterlimit="10" d="m 15,41.2 c 0.3,2.9 2.1,6.2 6.7,6.8 0,0 1.5,1.8 0,3.3 0,0 -1.4,1.2 -2.4,2.3 -1.3,1.2 -0.5,3.4 1.3,3.4 h 3.9 c 0.7,0 1.3,-0.4 1.7,-0.9 l 3.7,-5.9 1.3,-4" id="SvgjsPath1234"></path><path fill="none" stroke="#000000" stroke-width="2" stroke-linecap="round" stroke-linejoin="round" stroke-miterlimit="10" d="m 59,48 c 0,0 4.9,-0.1 3.4,3.9 -1.5,4 -5,3.6 -5,3.6" id="SvgjsPath1233"></path><path fill="none" stroke="#000000" stroke-width="2" stroke-linecap="round" stroke-linejoin="round" stroke-miterlimit="10" d="m 16.3,20.2 c -0.2,-3.1 0.8,-7.2 4,-8.9 0,0 1.9,-0.2 3.2,3.2" id="SvgjsPath1232"></path></g><g id="SvgjsG1231" transform="translate(173.71225,34.746805)"><path fill="#ffffff" d="m 26,27.3 -2.5,8.7 -9.7,1.4 c 0,0 0,3.1 0.2,3.7 0.2,0.6 2.8,4.3 2.8,4.3 l 4.4,2.8 1.6,1.7 -1.3,2.2 c 0,0 -3.1,2.3 -2.9,2.6 0.2,0.2 0.9,1.9 0.9,1.9 l 4.1,0.4 c 0,0 3.3,-1.1 3.3,-1.2 0,-0.1 3,-4.8 3,-4.8 0,0 3.9,-1.1 5.3,1.7 L 39.4,49 41.6,37.3 c 0,0 -1.8,-3.6 -1.9,-3.8 -0.1,-0.2 -5.3,-5.1 -5.3,-5.1 l -5.9,1.9 z" id="SvgjsPath1230"></path><path fill="#ffffff" d="M 19.3,22.7 13,26.4 9.1,32.5 c 0,0 0.8,4.1 0.9,4.1 0.1,0 7.9,1.6 7.9,1.6 l 6.5,-2.6 z" id="SvgjsPath1229"></path><g id="SvgjsG1228"><path fill="#3f3f3f" d="m 27.6,22 1.9,-5.4 -0.8,-5.3 -3.4,1.5 -1.9,1.3 c 0,0 -1.2,-2.8 -3,-2.8 l -3.3,3.8 -0.8,4.7 -0.9,0.9 c 0,0 0.3,3 0.9,3.2 0.2,0.1 0.7,0 1.1,-0.1 L 14,25.7 c 0,0 -2.4,8.4 5.2,12.3 2.4,0.1 3.2,0.7 5.5,-1.5 0,0 3.4,-4.4 0.6,-10.5 v 0 c 0,-0.2 -0.1,-0.4 -0.1,-0.4 z" id="SvgjsPath1227"></path></g><path fill="#3f3f3f" d="m 31.8,29 c 0,0 13.4,9 4.2,21.6 l -1,2.9 1.7,1.9 6.2,1.8 7.5,-0.6 5.1,-3.7 0.4,-3.9 -1,-5.9 -3.3,-5.6 -4.6,-5.3 -4.7,-2.9 z" id="SvgjsPath1226"></path><path fill="#ffffff" d="m 55.6,47.5 3.2,-0.5 3.7,1.8 c 0,0 0.1,3.3 0.2,3.4 0.1,0.1 -3.1,3.2 -3.1,3.2 -0.1,0.1 -2.4,1 -2.4,1 0,0 -3.3,0.3 -4.8,-1 l 2.9,-2.6 z" id="SvgjsPath1225"></path><path fill="none" stroke="#000000" stroke-width="2" stroke-linecap="round" stroke-linejoin="round" stroke-miterlimit="10" d="m 23.9,35.5 c -2.4,5.1 -13.2,1 -13.2,1 C 10.1,36.2 9.7,35.7 9.6,35 L 9.2,33 c -0.1,-0.5 0,-1 0.3,-1.4 l 1.9,-3.2 c 0.9,-1.5 2.3,-2.8 3.9,-3.6 L 19,23 c 0,0 3.5,-10.9 9.3,-11.8 0,0 4.6,4.7 -3.5,15 0,0 2,1.4 3.6,4 0,0 15.3,-8.9 24.9,10.4 C 62.2,58.4 45,57.3 39.1,56.5 37.6,56.3 36.3,55.4 35.6,54 35,52.7 35.1,51 39,50.5" id="SvgjsPath1224"></path><path fill="none" stroke="#000000" stroke-width="2" stroke-linecap="round" stroke-linejoin="round" stroke-miterlimit="10" d="m 15,41.2 c 0.3,2.9 2.1,6.2 6.7,6.8 0,0 1.5,1.8 0,3.3 0,0 -1.4,1.2 -2.4,2.3 -1.3,1.2 -0.5,3.4 1.3,3.4 h 3.9 c 0.7,0 1.3,-0.4 1.7,-0.9 l 3.7,-5.9 1.3,-4" id="SvgjsPath1223"></path><path fill="none" stroke="#000000" stroke-width="2" stroke-linecap="round" stroke-linejoin="round" stroke-miterlimit="10" d="m 59,48 c 0,0 4.9,-0.1 3.4,3.9 -1.5,4 -5,3.6 -5,3.6" id="SvgjsPath1222"></path><path fill="none" stroke="#000000" stroke-width="2" stroke-linecap="round" stroke-linejoin="round" stroke-miterlimit="10" d="m 16.3,20.2 c -0.2,-3.1 0.8,-7.2 4,-8.9 0,0 1.9,-0.2 3.2,3.2" id="SvgjsPath1221"></path></g><g id="SvgjsG1220" transform="translate(59.964667,90.839594)"><path fill="#ffffff" d="m 26,27.3 -2.5,8.7 -9.7,1.4 c 0,0 0,3.1 0.2,3.7 0.2,0.6 2.8,4.3 2.8,4.3 l 4.4,2.8 1.6,1.7 -1.3,2.2 c 0,0 -3.1,2.3 -2.9,2.6 0.2,0.2 0.9,1.9 0.9,1.9 l 4.1,0.4 c 0,0 3.3,-1.1 3.3,-1.2 0,-0.1 3,-4.8 3,-4.8 0,0 3.9,-1.1 5.3,1.7 L 39.4,49 41.6,37.3 c 0,0 -1.8,-3.6 -1.9,-3.8 -0.1,-0.2 -5.3,-5.1 -5.3,-5.1 l -5.9,1.9 z" id="SvgjsPath1219"></path><path fill="#ffffff" d="M 19.3,22.7 13,26.4 9.1,32.5 c 0,0 0.8,4.1 0.9,4.1 0.1,0 7.9,1.6 7.9,1.6 l 6.5,-2.6 z" id="SvgjsPath1218"></path><g id="SvgjsG1217"><path fill="#3f3f3f" d="m 27.6,22 1.9,-5.4 -0.8,-5.3 -3.4,1.5 -1.9,1.3 c 0,0 -1.2,-2.8 -3,-2.8 l -3.3,3.8 -0.8,4.7 -0.9,0.9 c 0,0 0.3,3 0.9,3.2 0.2,0.1 0.7,0 1.1,-0.1 L 14,25.7 c 0,0 -2.4,8.4 5.2,12.3 2.4,0.1 3.2,0.7 5.5,-1.5 0,0 3.4,-4.4 0.6,-10.5 v 0 c 0,-0.2 -0.1,-0.4 -0.1,-0.4 z" id="SvgjsPath1216"></path></g><path fill="#3f3f3f" d="m 31.8,29 c 0,0 13.4,9 4.2,21.6 l -1,2.9 1.7,1.9 6.2,1.8 7.5,-0.6 5.1,-3.7 0.4,-3.9 -1,-5.9 -3.3,-5.6 -4.6,-5.3 -4.7,-2.9 z" id="SvgjsPath1215"></path><path fill="#ffffff" d="m 55.6,47.5 3.2,-0.5 3.7,1.8 c 0,0 0.1,3.3 0.2,3.4 0.1,0.1 -3.1,3.2 -3.1,3.2 -0.1,0.1 -2.4,1 -2.4,1 0,0 -3.3,0.3 -4.8,-1 l 2.9,-2.6 z" id="SvgjsPath1214"></path><path fill="none" stroke="#000000" stroke-width="2" stroke-linecap="round" stroke-linejoin="round" stroke-miterlimit="10" d="m 23.9,35.5 c -2.4,5.1 -13.2,1 -13.2,1 C 10.1,36.2 9.7,35.7 9.6,35 L 9.2,33 c -0.1,-0.5 0,-1 0.3,-1.4 l 1.9,-3.2 c 0.9,-1.5 2.3,-2.8 3.9,-3.6 L 19,23 c 0,0 3.5,-10.9 9.3,-11.8 0,0 4.6,4.7 -3.5,15 0,0 2,1.4 3.6,4 0,0 15.3,-8.9 24.9,10.4 C 62.2,58.4 45,57.3 39.1,56.5 37.6,56.3 36.3,55.4 35.6,54 35,52.7 35.1,51 39,50.5" id="SvgjsPath1213"></path><path fill="none" stroke="#000000" stroke-width="2" stroke-linecap="round" stroke-linejoin="round" stroke-miterlimit="10" d="m 15,41.2 c 0.3,2.9 2.1,6.2 6.7,6.8 0,0 1.5,1.8 0,3.3 0,0 -1.4,1.2 -2.4,2.3 -1.3,1.2 -0.5,3.4 1.3,3.4 h 3.9 c 0.7,0 1.3,-0.4 1.7,-0.9 l 3.7,-5.9 1.3,-4" id="SvgjsPath1212"></path><path fill="none" stroke="#000000" stroke-width="2" stroke-linecap="round" stroke-linejoin="round" stroke-miterlimit="10" d="m 59,48 c 0,0 4.9,-0.1 3.4,3.9 -1.5,4 -5,3.6 -5,3.6" id="SvgjsPath1211"></path><path fill="none" stroke="#000000" stroke-width="2" stroke-linecap="round" stroke-linejoin="round" stroke-miterlimit="10" d="m 16.3,20.2 c -0.2,-3.1 0.8,-7.2 4,-8.9 0,0 1.9,-0.2 3.2,3.2" id="SvgjsPath1210"></path></g><g id="SvgjsG1209" transform="translate(116.23754,60.097783)"><path fill="#ffffff" d="m 26,27.3 -2.5,8.7 -9.7,1.4 c 0,0 0,3.1 0.2,3.7 0.2,0.6 2.8,4.3 2.8,4.3 l 4.4,2.8 1.6,1.7 -1.3,2.2 c 0,0 -3.1,2.3 -2.9,2.6 0.2,0.2 0.9,1.9 0.9,1.9 l 4.1,0.4 c 0,0 3.3,-1.1 3.3,-1.2 0,-0.1 3,-4.8 3,-4.8 0,0 3.9,-1.1 5.3,1.7 L 39.4,49 41.6,37.3 c 0,0 -1.8,-3.6 -1.9,-3.8 -0.1,-0.2 -5.3,-5.1 -5.3,-5.1 l -5.9,1.9 z" id="SvgjsPath1208"></path><path fill="#ffffff" d="M 19.3,22.7 13,26.4 9.1,32.5 c 0,0 0.8,4.1 0.9,4.1 0.1,0 7.9,1.6 7.9,1.6 l 6.5,-2.6 z" id="SvgjsPath1207"></path><g id="SvgjsG1206"><path fill="#3f3f3f" d="m 27.6,22 1.9,-5.4 -0.8,-5.3 -3.4,1.5 -1.9,1.3 c 0,0 -1.2,-2.8 -3,-2.8 l -3.3,3.8 -0.8,4.7 -0.9,0.9 c 0,0 0.3,3 0.9,3.2 0.2,0.1 0.7,0 1.1,-0.1 L 14,25.7 c 0,0 -2.4,8.4 5.2,12.3 2.4,0.1 3.2,0.7 5.5,-1.5 0,0 3.4,-4.4 0.6,-10.5 v 0 c 0,-0.2 -0.1,-0.4 -0.1,-0.4 z" id="SvgjsPath1205"></path></g><path fill="#3f3f3f" d="m 31.8,29 c 0,0 13.4,9 4.2,21.6 l -1,2.9 1.7,1.9 6.2,1.8 7.5,-0.6 5.1,-3.7 0.4,-3.9 -1,-5.9 -3.3,-5.6 -4.6,-5.3 -4.7,-2.9 z" id="SvgjsPath1204"></path><path fill="#ffffff" d="m 55.6,47.5 3.2,-0.5 3.7,1.8 c 0,0 0.1,3.3 0.2,3.4 0.1,0.1 -3.1,3.2 -3.1,3.2 -0.1,0.1 -2.4,1 -2.4,1 0,0 -3.3,0.3 -4.8,-1 l 2.9,-2.6 z" id="SvgjsPath1203"></path><path fill="none" stroke="#000000" stroke-width="2" stroke-linecap="round" stroke-linejoin="round" stroke-miterlimit="10" d="m 23.9,35.5 c -2.4,5.1 -13.2,1 -13.2,1 C 10.1,36.2 9.7,35.7 9.6,35 L 9.2,33 c -0.1,-0.5 0,-1 0.3,-1.4 l 1.9,-3.2 c 0.9,-1.5 2.3,-2.8 3.9,-3.6 L 19,23 c 0,0 3.5,-10.9 9.3,-11.8 0,0 4.6,4.7 -3.5,15 0,0 2,1.4 3.6,4 0,0 15.3,-8.9 24.9,10.4 C 62.2,58.4 45,57.3 39.1,56.5 37.6,56.3 36.3,55.4 35.6,54 35,52.7 35.1,51 39,50.5" id="SvgjsPath1202"></path><path fill="none" stroke="#000000" stroke-width="2" stroke-linecap="round" stroke-linejoin="round" stroke-miterlimit="10" d="m 15,41.2 c 0.3,2.9 2.1,6.2 6.7,6.8 0,0 1.5,1.8 0,3.3 0,0 -1.4,1.2 -2.4,2.3 -1.3,1.2 -0.5,3.4 1.3,3.4 h 3.9 c 0.7,0 1.3,-0.4 1.7,-0.9 l 3.7,-5.9 1.3,-4" id="SvgjsPath1201"></path><path fill="none" stroke="#000000" stroke-width="2" stroke-linecap="round" stroke-linejoin="round" stroke-miterlimit="10" d="m 59,48 c 0,0 4.9,-0.1 3.4,3.9 -1.5,4 -5,3.6 -5,3.6" id="SvgjsPath1200"></path><path fill="none" stroke="#000000" stroke-width="2" stroke-linecap="round" stroke-linejoin="round" stroke-miterlimit="10" d="m 16.3,20.2 c -0.2,-3.1 0.8,-7.2 4,-8.9 0,0 1.9,-0.2 3.2,3.2" id="SvgjsPath1199"></path></g><g id="SvgjsG1198" transform="translate(119.38133,185.95398)"><path fill="#ffffff" d="m 26,27.3 -2.5,8.7 -9.7,1.4 c 0,0 0,3.1 0.2,3.7 0.2,0.6 2.8,4.3 2.8,4.3 l 4.4,2.8 1.6,1.7 -1.3,2.2 c 0,0 -3.1,2.3 -2.9,2.6 0.2,0.2 0.9,1.9 0.9,1.9 l 4.1,0.4 c 0,0 3.3,-1.1 3.3,-1.2 0,-0.1 3,-4.8 3,-4.8 0,0 3.9,-1.1 5.3,1.7 L 39.4,49 41.6,37.3 c 0,0 -1.8,-3.6 -1.9,-3.8 -0.1,-0.2 -5.3,-5.1 -5.3,-5.1 l -5.9,1.9 z" id="SvgjsPath1197"></path><path fill="#ffffff" d="M 19.3,22.7 13,26.4 9.1,32.5 c 0,0 0.8,4.1 0.9,4.1 0.1,0 7.9,1.6 7.9,1.6 l 6.5,-2.6 z" id="SvgjsPath1196"></path><g id="SvgjsG1195"><path fill="#3f3f3f" d="m 27.6,22 1.9,-5.4 -0.8,-5.3 -3.4,1.5 -1.9,1.3 c 0,0 -1.2,-2.8 -3,-2.8 l -3.3,3.8 -0.8,4.7 -0.9,0.9 c 0,0 0.3,3 0.9,3.2 0.2,0.1 0.7,0 1.1,-0.1 L 14,25.7 c 0,0 -2.4,8.4 5.2,12.3 2.4,0.1 3.2,0.7 5.5,-1.5 0,0 3.4,-4.4 0.6,-10.5 v 0 c 0,-0.2 -0.1,-0.4 -0.1,-0.4 z" id="SvgjsPath1194"></path></g><path fill="#3f3f3f" d="m 31.8,29 c 0,0 13.4,9 4.2,21.6 l -1,2.9 1.7,1.9 6.2,1.8 7.5,-0.6 5.1,-3.7 0.4,-3.9 -1,-5.9 -3.3,-5.6 -4.6,-5.3 -4.7,-2.9 z" id="SvgjsPath1193"></path><path fill="#ffffff" d="m 55.6,47.5 3.2,-0.5 3.7,1.8 c 0,0 0.1,3.3 0.2,3.4 0.1,0.1 -3.1,3.2 -3.1,3.2 -0.1,0.1 -2.4,1 -2.4,1 0,0 -3.3,0.3 -4.8,-1 l 2.9,-2.6 z" id="SvgjsPath1192"></path><path fill="none" stroke="#000000" stroke-width="2" stroke-linecap="round" stroke-linejoin="round" stroke-miterlimit="10" d="m 23.9,35.5 c -2.4,5.1 -13.2,1 -13.2,1 C 10.1,36.2 9.7,35.7 9.6,35 L 9.2,33 c -0.1,-0.5 0,-1 0.3,-1.4 l 1.9,-3.2 c 0.9,-1.5 2.3,-2.8 3.9,-3.6 L 19,23 c 0,0 3.5,-10.9 9.3,-11.8 0,0 4.6,4.7 -3.5,15 0,0 2,1.4 3.6,4 0,0 15.3,-8.9 24.9,10.4 C 62.2,58.4 45,57.3 39.1,56.5 37.6,56.3 36.3,55.4 35.6,54 35,52.7 35.1,51 39,50.5" id="SvgjsPath1191"></path><path fill="none" stroke="#000000" stroke-width="2" stroke-linecap="round" stroke-linejoin="round" stroke-miterlimit="10" d="m 15,41.2 c 0.3,2.9 2.1,6.2 6.7,6.8 0,0 1.5,1.8 0,3.3 0,0 -1.4,1.2 -2.4,2.3 -1.3,1.2 -0.5,3.4 1.3,3.4 h 3.9 c 0.7,0 1.3,-0.4 1.7,-0.9 l 3.7,-5.9 1.3,-4" id="SvgjsPath1190"></path><path fill="none" stroke="#000000" stroke-width="2" stroke-linecap="round" stroke-linejoin="round" stroke-miterlimit="10" d="m 59,48 c 0,0 4.9,-0.1 3.4,3.9 -1.5,4 -5,3.6 -5,3.6" id="SvgjsPath1189"></path><path fill="none" stroke="#000000" stroke-width="2" stroke-linecap="round" stroke-linejoin="round" stroke-miterlimit="10" d="m 16.3,20.2 c -0.2,-3.1 0.8,-7.2 4,-8.9 0,0 1.9,-0.2 3.2,3.2" id="SvgjsPath1188"></path></g>
<g id="SvgjsG1187" transform="translate(232.46157,6.4971588)"><path fill="#ffffff" d="m 26,27.3 -2.5,8.7 -9.7,1.4 c 0,0 0,3.1 0.2,3.7 0.2,0.6 2.8,4.3 2.8,4.3 l 4.4,2.8 1.6,1.7 -1.3,2.2 c 0,0 -3.1,2.3 -2.9,2.6 0.2,0.2 0.9,1.9 0.9,1.9 l 4.1,0.4 c 0,0 3.3,-1.1 3.3,-1.2 0,-0.1 3,-4.8 3,-4.8 0,0 3.9,-1.1 5.3,1.7 L 39.4,49 41.6,37.3 c 0,0 -1.8,-3.6 -1.9,-3.8 -0.1,-0.2 -5.3,-5.1 -5.3,-5.1 l -5.9,1.9 z" id="SvgjsPath1186"></path><path fill="#ffffff" d="M 19.3,22.7 13,26.4 9.1,32.5 c 0,0 0.8,4.1 0.9,4.1 0.1,0 7.9,1.6 7.9,1.6 l 6.5,-2.6 z" id="SvgjsPath1185"></path><g id="SvgjsG1184"><path fill="#3f3f3f" d="m 27.6,22 1.9,-5.4 -0.8,-5.3 -3.4,1.5 -1.9,1.3 c 0,0 -1.2,-2.8 -3,-2.8 l -3.3,3.8 -0.8,4.7 -0.9,0.9 c 0,0 0.3,3 0.9,3.2 0.2,0.1 0.7,0 1.1,-0.1 L 14,25.7 c 0,0 -2.4,8.4 5.2,12.3 2.4,0.1 3.2,0.7 5.5,-1.5 0,0 3.4,-4.4 0.6,-10.5 v 0 c 0,-0.2 -0.1,-0.4 -0.1,-0.4 z" id="SvgjsPath1183"></path></g><path fill="#3f3f3f" d="m 31.8,29 c 0,0 13.4,9 4.2,21.6 l -1,2.9 1.7,1.9 6.2,1.8 7.5,-0.6 5.1,-3.7 0.4,-3.9 -1,-5.9 -3.3,-5.6 -4.6,-5.3 -4.7,-2.9 z" id="SvgjsPath1182"></path><path fill="#ffffff" d="m 55.6,47.5 3.2,-0.5 3.7,1.8 c 0,0 0.1,3.3 0.2,3.4 0.1,0.1 -3.1,3.2 -3.1,3.2 -0.1,0.1 -2.4,1 -2.4,1 0,0 -3.3,0.3 -4.8,-1 l 2.9,-2.6 z" id="SvgjsPath1181"></path><path fill="none" stroke="#000000" stroke-width="2" stroke-linecap="round" stroke-linejoin="round" stroke-miterlimit="10" d="m 23.9,35.5 c -2.4,5.1 -13.2,1 -13.2,1 C 10.1,36.2 9.7,35.7 9.6,35 L 9.2,33 c -0.1,-0.5 0,-1 0.3,-1.4 l 1.9,-3.2 c 0.9,-1.5 2.3,-2.8 3.9,-3.6 L 19,23 c 0,0 3.5,-10.9 9.3,-11.8 0,0 4.6,4.7 -3.5,15 0,0 2,1.4 3.6,4 0,0 15.3,-8.9 24.9,10.4 C 62.2,58.4 45,57.3 39.1,56.5 37.6,56.3 36.3,55.4 35.6,54 35,52.7 35.1,51 39,50.5" id="SvgjsPath1180"></path><path fill="none" stroke="#000000" stroke-width="2" stroke-linecap="round" stroke-linejoin="round" stroke-miterlimit="10" d="m 15,41.2 c 0.3,2.9 2.1,6.2 6.7,6.8 0,0 1.5,1.8 0,3.3 0,0 -1.4,1.2 -2.4,2.3 -1.3,1.2 -0.5,3.4 1.3,3.4 h 3.9 c 0.7,0 1.3,-0.4 1.7,-0.9 l 3.7,-5.9 1.3,-4" id="SvgjsPath1179"></path><path fill="none" stroke="#000000" stroke-width="2" stroke-linecap="round" stroke-linejoin="round" stroke-miterlimit="10" d="m 59,48 c 0,0 4.9,-0.1 3.4,3.9 -1.5,4 -5,3.6 -5,3.6" id="SvgjsPath1178"></path><path fill="none" stroke="#000000" stroke-width="2" stroke-linecap="round" stroke-linejoin="round" stroke-miterlimit="10" d="m 16.3,20.2 c -0.2,-3.1 0.8,-7.2 4,-8.9 0,0 1.9,-0.2 3.2,3.2" id="SvgjsPath1177"></path></g></g></g></svg><style>@media (prefers-color-scheme: light) { :root { filter: none; } }
@media (prefers-color-scheme: dark) { :root { filter: none; } }
</style></svg>